<?xml version="1.0" encoding="UTF-8"?>
<svg id="Capa_1" data-name="Capa 1" xmlns="http://www.w3.org/2000/svg" viewBox="0 0 632.97 1031">
  <defs>
    <style>
      .cls-1 {
        fill: #a79169;
        stroke: #a79169;
      }

      .cls-1, .cls-2 {
        stroke-miterlimit: 10;
      }

      .cls-2 {
        fill: #bba570;
        stroke: #bba570;
      }
    </style>
  </defs>
  <path class="cls-2" d="M394.92,.5c45.8,.17,82.65,38.12,83.45,82.84,.82,46.12-36.95,86.05-84.06,85.88-47.11-.17-84.6-40.37-83.45-86.49,.16-6.4,1.06-12.66,2.62-18.68C322.8,28,355.68,.36,394.92,.5Z"/>
  <path class="cls-1" d="M549.63,193.59c44.92,.96,82.83,38.15,82.84,84.06,0,45.75-37.65,82.79-82.23,84.06-46.44,1.32-87.11-36.56-87.1-84.06,0-47.19,40.15-85.05,86.49-84.06Z"/>
  <path class="cls-2" d="M441.82,430.53c47.34-1.01,87.1,37.94,87.1,85.27,0,46.11-37.73,84.61-84.06,85.27-46.93,.67-86.15-37.74-86.49-84.67-.34-46.32,37.33-84.9,83.45-85.88Z"/>
  <path class="cls-1" d="M464.24,291.06h-153.41c-5.09,1.26-25.6,6.98-39.57,27.39-12.73,18.59-12,37.64-11.57,43.28-1.08,8.53-4.76,28.1-20.1,46.26-22.35,26.45-52.92,30.35-59.9,31.06H52.2v-27.41h121.62c4.97-.03,24.52-.72,41.42-15.84,14.43-12.9,18.39-28.67,19.49-34.08v-21.96c2.64-9.46,9.84-32.14,29.24-50.56,16.47-15.64,26.95-22.99,46.88-24.89h152.3"/>
  <path class="cls-2" d="M311.21,92.5c-7.72-1.24-31.26-4-56.39,9.11-23.52,12.27-34.66,31.28-38.37,38.37-8.5,31.46-29.05,85.14-50.56,137.67-3.43,8.37-12.9,28.31-34.72,43.85-20.47,14.58-40.89,17.51-49.95,18.27h-29.03v-26.8h27.82c8.17-1.77,21.24-5.67,34.11-15.23,15.63-11.6,23.37-25.88,28.63-36.55,24.53-49.72,49.27-130.47,52.38-140.7,5.18-9.36,18-29.44,42.96-43.6,33.23-18.84,65.68-11.12,75.38-12.85"/>
  <polyline class="cls-2" points="359.67 501.2 52.2 501.2 52.2 531.64 359.9 531.64"/>
  <path class="cls-2" d="M394.92,1030.5c45.8-.17,82.65-38.12,83.45-82.84,.82-46.12-36.95-86.05-84.06-85.88-47.11,.17-84.6,40.37-83.45,86.49,.16,6.4,1.06,12.66,2.62,18.68,9.32,36.05,42.2,63.69,81.44,63.55Z"/>
  <path class="cls-1" d="M549.63,837.41c44.92-.96,82.83-38.15,82.84-84.06,0-45.75-37.65-82.79-82.23-84.06-46.44-1.32-87.11,36.56-87.1,84.06,0,47.19,40.15,85.05,86.49,84.06Z"/>
  <path class="cls-1" d="M464.24,739.94h-153.41c-5.09-1.26-25.6-6.98-39.57-27.39-12.73-18.59-12-37.64-11.57-43.28-1.08-8.53-4.76-28.1-20.1-46.26-22.35-26.45-52.92-30.35-59.9-31.06H52.2v27.41h121.62c4.97,.03,24.52,.72,41.42,15.84,14.43,12.9,18.39,28.67,19.49,34.08v21.96c2.64,9.46,9.84,32.14,29.24,50.56,16.47,15.64,26.95,22.99,46.88,24.89h152.3"/>
  <path class="cls-2" d="M311.21,938.5c-7.72,1.24-31.26,4-56.39-9.11-23.52-12.27-34.66-31.28-38.37-38.37-8.5-31.46-29.05-85.14-50.56-137.67-3.43-8.37-12.9-28.31-34.72-43.85-20.47-14.58-40.89-17.51-49.95-18.27h-29.03v26.8h27.82c8.17,1.77,21.24,5.67,34.11,15.23,15.63,11.6,23.37,25.88,28.63,36.55,24.53,49.72,49.27,130.47,52.38,140.7,5.18,9.36,18,29.44,42.96,43.6,33.23,18.84,65.68,11.12,75.38,12.85"/>
  <path class="cls-1" d="M53.72,439.06v-27.41"/>
  <line class="cls-2" x1="53.72" y1="339.77" x2="53.72" y2="312.97"/>
  <line class="cls-2" x1="53.72" y1="501.2" x2="53.72" y2="531.64"/>
  <path class="cls-1" d="M53.72,591.94v27.41"/>
  <line class="cls-2" x1="53.72" y1="691.23" x2="53.72" y2="718.03"/>
</svg>